HIERARCHY
ROOT joint_Root
{
	OFFSET 0.0 0.0 0.0
	CHANNELS 6 Xposition Yposition Zposition Zrotation Xrotation Yrotation 
	JOINT Hips
	{
		OFFSET -17.1583 93.1646 452.98
		CHANNELS 6 Xposition Yposition Zposition Zrotation Xrotation Yrotation 
		JOINT Spine
		{
			OFFSET 15.7357 0.0 0.0
			CHANNELS 6 Xposition Yposition Zposition Zrotation Xrotation Yrotation 
			JOINT Chest
			{
				OFFSET 8.98455 -0.406207 0.0
				CHANNELS 6 Xposition Yposition Zposition Zrotation Xrotation Yrotation 
				JOINT Neck
				{
					OFFSET 16.3773 0.0 0.0
					CHANNELS 6 Xposition Yposition Zposition Zrotation Xrotation Yrotation 
					JOINT Head
					{
						OFFSET 6.45672 0.0 0.0
						CHANNELS 6 Xposition Yposition Zposition Zrotation Xrotation Yrotation 
						End Site
						{
							OFFSET 0.0 0.0 0.0
						}
					}
				}
				JOINT Shoulder_L
				{
					OFFSET 12.9942 -0.242716 4.98039
					CHANNELS 6 Xposition Yposition Zposition Zrotation Xrotation Yrotation 
					JOINT UpperArm_L
					{
						OFFSET 5.34809 0.0 0.0
						CHANNELS 6 Xposition Yposition Zposition Zrotation Xrotation Yrotation 
						JOINT LowerArm_L
						{
							OFFSET 24.3286 1.87007e-05 0.0
							CHANNELS 6 Xposition Yposition Zposition Zrotation Xrotation Yrotation 
							JOINT Hand_L
							{
								OFFSET 22.2916 0.0 0.0
								CHANNELS 6 Xposition Yposition Zposition Zrotation Xrotation Yrotation 
								End Site
								{
									OFFSET 0.0 0.0 0.0
								}
							}
						}
					}
				}
				JOINT Shoulder_R
				{
					OFFSET 12.9945 -0.242716 -4.98039
					CHANNELS 6 Xposition Yposition Zposition Zrotation Xrotation Yrotation 
					JOINT UpperArm_R
					{
						OFFSET -5.34813 0.0 0.0
						CHANNELS 6 Xposition Yposition Zposition Zrotation Xrotation Yrotation 
						JOINT LowerArm_R
						{
							OFFSET -24.3289 0.000322201 0.0
							CHANNELS 6 Xposition Yposition Zposition Zrotation Xrotation Yrotation 
							JOINT Hand_R
							{
								OFFSET -22.2915 -0.000108084 0.0
								CHANNELS 6 Xposition Yposition Zposition Zrotation Xrotation Yrotation 
								End Site
								{
									OFFSET 0.0 0.0 0.0
								}
							}
						}
					}
				}
			}
		}
		JOINT UpperLeg_L
		{
			OFFSET -2.19248 -6.46944 0.0
			CHANNELS 6 Xposition Yposition Zposition Zrotation Xrotation Yrotation 
			JOINT LowerLeg_L
			{
				OFFSET 39.0811 0.0 -1.23785e-05
				CHANNELS 6 Xposition Yposition Zposition Zrotation Xrotation Yrotation 
				JOINT Foot_L
				{
					OFFSET 40.9854 0.0 -1.26872e-05
					CHANNELS 6 Xposition Yposition Zposition Zrotation Xrotation Yrotation 
					JOINT Toes_L
					{
						OFFSET 11.7543 0.0 0.0
						CHANNELS 6 Xposition Yposition Zposition Zrotation Xrotation Yrotation 
						End Site
						{
							OFFSET 0.0 0.0 0.0
						}
					}
				}
			}
		}
		JOINT UpperLeg_R
		{
			OFFSET -2.19251 6.46944 0.0
			CHANNELS 6 Xposition Yposition Zposition Zrotation Xrotation Yrotation 
			JOINT LowerLeg_R
			{
				OFFSET -39.0811 -0.00228153 -0.0401928
				CHANNELS 6 Xposition Yposition Zposition Zrotation Xrotation Yrotation 
				JOINT Foot_R
				{
					OFFSET -40.9854 0.0 0.0
					CHANNELS 6 Xposition Yposition Zposition Zrotation Xrotation Yrotation 
					JOINT Toes_R
					{
						OFFSET -11.7543 0.0 0.0
						CHANNELS 6 Xposition Yposition Zposition Zrotation Xrotation Yrotation 
						End Site
						{
							OFFSET 0.0 0.0 0.0
						}
					}
				}
			}
		}
	}
}
MOTION
Frames:	8
Frame Time:	0.0333333
0.000000 0.000000 0.000000 0.000000 0.000000 -0.000000 1.866160 93.033500 1.172830 89.196400 0.318150 0.722717 15.735700 0.000005 -0.000001 118.004000 87.746500 -117.523000 8.984550 -0.406207 -0.000000 -3.796460 2.066370 1.030390 16.377300 -0.000001 -0.000001 2.001400 3.180860 -5.614580 6.456720 -0.000001 -0.000000 4.292910 0.292256 -0.481619 12.994200 -0.242716 4.980390 -93.063900 9.257540 -71.596800 5.348090 -0.000007 -0.000001 -71.171700 21.306600 -1.631610 24.328600 0.000019 0.000005 8.089790 25.462100 -18.295000 22.291600 -0.000001 0.000005 -4.431050 5.084780 5.458320 12.994500 -0.242716 -4.980390 88.022200 6.951270 -74.075000 -5.348130 -0.000001 -0.000004 -71.016200 27.782700 -2.749430 -24.328900 0.000322 -0.000009 1.377370 5.274830 -14.667500 -22.291500 -0.000108 -0.000004 2.390230 5.282450 0.559161 -2.192480 -6.469440 -0.000000 -176.313000 -3.753380 0.201049 39.081100 -0.000007 -0.000012 0.039832 -0.152809 14.610300 40.985400 -0.000006 -0.000013 0.545077 11.039400 -69.235800 11.754300 -0.000000 0.000003 -0.000647 0.177890 -9.361060 -2.192510 6.469440 -0.000001 173.930000 5.982150 -176.397000 -39.081100 -0.002282 -0.040193 0.000679 0.017159 8.818740 -40.985400 0.000008 0.000006 -11.004400 5.439200 -65.780400 -11.754300 -0.000006 -0.000006 -0.010585 0.275622 -5.374370
0.000000 0.000000 0.000000 0.000000 0.000000 -0.000000 1.772770 93.033800 1.230470 89.208600 0.287050 0.621377 15.735700 0.000005 -0.000001 120.290000 87.711800 -119.751000 8.984550 -0.406207 -0.000000 -3.826270 2.252250 1.153650 16.377300 -0.000001 -0.000001 1.829700 3.122800 -4.908660 6.456720 -0.000001 -0.000000 4.138040 0.502433 -0.207081 12.994200 -0.242716 4.980390 -93.186400 9.503870 -71.368000 5.348090 -0.000007 -0.000001 -70.462300 18.785900 -2.426230 24.328600 0.000019 0.000005 8.203330 26.587800 -17.853900 22.291600 -0.000001 0.000005 -5.737350 5.121290 4.616610 12.994500 -0.242716 -4.980390 88.051200 6.879510 -74.141500 -5.348130 -0.000001 -0.000004 -71.156200 26.960300 -2.442610 -24.328900 0.000322 -0.000009 1.318520 5.056020 -14.648100 -22.291500 -0.000108 -0.000004 2.214490 5.283090 0.541688 -2.192480 -6.469440 -0.000000 -176.264000 -3.728360 0.220818 39.081100 -0.000007 -0.000012 0.039195 -0.152079 14.452400 40.985400 -0.000006 -0.000013 0.462883 11.015600 -69.161800 11.754300 -0.000000 0.000003 -0.000466 0.175134 -9.473030 -2.192510 6.469440 -0.000001 174.006000 5.918570 -176.505000 -39.081100 -0.002282 -0.040193 0.000976 0.015107 8.895600 -40.985400 0.000008 0.000006 -10.865700 5.358520 -65.886900 -11.754300 -0.000006 -0.000006 -0.010542 0.275308 -5.387210
0.000000 0.000000 0.000000 0.000000 0.000000 -0.000000 1.676740 93.042000 1.277680 89.227400 0.382473 0.537822 15.735700 0.000005 -0.000001 122.859000 87.645800 -122.257000 8.984550 -0.406207 -0.000000 -3.825640 2.492170 1.287610 16.377300 -0.000001 -0.000001 1.577130 2.963160 -4.034280 6.456720 -0.000001 -0.000000 3.823920 0.651093 0.517350 12.994200 -0.242716 4.980390 -93.359400 9.824100 -71.015200 5.348090 -0.000007 -0.000001 -69.378700 15.000100 -3.917790 24.328600 0.000019 0.000005 7.857030 27.998700 -16.381800 22.291600 -0.000001 0.000005 -7.900840 5.173470 3.362700 12.994500 -0.242716 -4.980390 88.036300 6.939760 -74.157800 -5.348130 -0.000001 -0.000004 -71.145700 25.292500 -1.948860 -24.328900 0.000322 -0.000009 1.204560 4.540920 -14.886100 -22.291500 -0.000108 -0.000004 2.188210 5.284160 0.512309 -2.192480 -6.469440 -0.000000 -176.215000 -3.687740 0.260052 39.081100 -0.000007 -0.000012 0.039017 -0.153490 14.262700 40.985400 -0.000006 -0.000013 0.384877 11.067200 -69.161900 11.754300 -0.000000 0.000003 -0.000507 0.175766 -9.447360 -2.192510 6.469440 -0.000001 174.056000 5.974580 -176.538000 -39.081100 -0.002282 -0.040193 0.001137 0.014091 8.887250 -40.985400 0.000008 0.000006 -10.923500 5.359860 -65.946200 -11.754300 -0.000006 -0.000006 -0.010621 0.275889 -5.363460
0.000000 0.000000 0.000000 0.000000 0.000000 -0.000000 1.581460 93.035600 1.319850 89.225900 0.569931 0.441805 15.735700 0.000005 -0.000001 125.305000 87.596900 -124.616000 8.984550 -0.406207 -0.000000 -3.861900 2.705970 1.470120 16.377300 -0.000001 -0.000001 1.397630 2.749410 -3.087540 6.456720 -0.000001 -0.000000 3.307560 0.709455 1.525410 12.994200 -0.242716 4.980390 -93.480500 10.011900 -70.718200 5.348090 -0.000007 -0.000001 -67.951700 9.722360 -6.345600 24.328600 0.000019 0.000005 6.591340 30.006500 -13.012100 22.291600 -0.000001 0.000005 -10.949800 5.237190 1.752630 12.994500 -0.242716 -4.980390 88.018100 7.002100 -74.152900 -5.348130 -0.000001 -0.000004 -71.029100 23.331100 -1.468450 -24.328900 0.000322 -0.000009 1.112370 4.142410 -15.059000 -22.291500 -0.000108 -0.000004 2.444480 5.286350 0.452125 -2.192480 -6.469440 -0.000000 -176.152000 -3.473330 0.159529 39.081100 -0.000007 -0.000012 0.039244 -0.154328 14.267300 40.985400 -0.000006 -0.000013 0.312926 11.059200 -69.171900 11.754300 -0.000000 0.000003 -0.000565 0.176641 -9.411790 -2.192510 6.469440 -0.000001 174.144000 6.237200 -176.612000 -39.081100 -0.002282 -0.040193 0.001079 0.014310 8.981210 -40.985400 0.000008 0.000006 -10.561500 5.362420 -66.083800 -11.754300 -0.000006 -0.000006 -0.010480 0.274854 -5.405800
0.000000 0.000000 0.000000 0.000000 0.000000 -0.000000 1.483060 93.037900 1.379820 89.246100 0.809482 0.333689 15.735700 0.000005 -0.000001 126.648000 87.610100 -125.819000 8.984550 -0.406207 -0.000000 -3.952930 2.766430 1.755550 16.377300 -0.000001 -0.000001 1.249560 2.573390 -2.189430 6.456720 -0.000001 -0.000000 2.851370 0.800766 2.519680 12.994200 -0.242716 4.980390 -93.510200 10.011000 -70.564000 5.348090 -0.000007 -0.000001 -66.099700 3.732850 -9.258890 24.328600 0.000019 0.000005 4.602140 32.323600 -8.562410 22.291600 -0.000001 0.000005 -13.910000 5.262770 1.095440 12.994500 -0.242716 -4.980390 88.045800 6.898870 -74.142500 -5.348130 -0.000001 -0.000004 -70.766100 21.702900 -1.241190 -24.328900 0.000322 -0.000009 0.985428 3.688300 -14.984800 -22.291500 -0.000108 -0.000004 2.743370 5.288780 0.385229 -2.192480 -6.469440 -0.000000 -176.080000 -3.434630 0.133459 39.081100 -0.000007 -0.000012 0.037733 -0.149941 14.125600 40.985400 -0.000006 -0.000013 0.254937 11.277700 -69.151100 11.754300 -0.000000 0.000003 -0.000525 0.176037 -9.436350 -2.192510 6.469440 -0.000001 174.184000 6.562440 -176.654000 -39.081100 -0.002282 -0.040193 0.001112 0.014053 9.009160 -40.985400 0.000008 0.000006 -10.546800 5.440190 -66.147500 -11.754300 -0.000006 -0.000006 -0.010771 0.276977 -5.318940
0.000000 0.000000 0.000000 0.000000 0.000000 -0.000000 1.377260 93.048200 1.448560 89.306000 1.084660 0.136547 15.735700 0.000005 -0.000001 127.136000 87.717300 -126.115000 8.984550 -0.406207 -0.000000 -4.151460 2.648100 2.139680 16.377300 -0.000001 -0.000001 1.023870 2.393670 -1.379240 6.456720 -0.000001 -0.000000 2.596290 1.000590 3.351810 12.994200 -0.242716 4.980390 -93.390300 9.663150 -70.560700 5.348090 -0.000007 -0.000001 -63.760500 -2.342090 -12.314200 24.328600 0.000019 0.000005 2.463230 35.802900 -4.208970 22.291600 -0.000001 0.000005 -16.256600 5.256590 1.259870 12.994500 -0.242716 -4.980390 88.100900 6.664960 -74.056200 -5.348130 -0.000001 -0.000004 -70.321100 20.231700 -1.289060 -24.328900 0.000322 -0.000009 0.889473 3.409340 -14.647600 -22.291500 -0.000108 -0.000004 2.994600 5.288910 0.381055 -2.192480 -6.469440 -0.000000 -176.026000 -3.531100 0.088255 39.081100 -0.000007 -0.000012 0.036121 -0.146420 13.858200 40.985400 -0.000006 -0.000013 0.199912 11.671700 -69.153500 11.754300 -0.000000 0.000003 -0.000598 0.177143 -9.391420 -2.192510 6.469440 -0.000001 174.212000 6.820200 -176.696000 -39.081100 -0.002282 -0.040193 0.001310 0.012979 8.894150 -40.985400 0.000008 0.000006 -10.500100 5.392420 -66.168400 -11.754300 -0.000006 -0.000006 -0.010685 0.276354 -5.344440
0.000000 0.000000 0.000000 0.000000 0.000000 -0.000000 1.285140 93.066400 1.493960 89.356900 1.364160 -0.158426 15.735700 0.000005 -0.000001 125.833000 87.894300 -124.542000 8.984550 -0.406207 -0.000000 -4.378600 2.326740 2.672610 16.377300 -0.000001 -0.000001 0.592445 2.377620 -0.799931 6.456720 -0.000001 -0.000000 2.370850 1.341960 4.117730 12.994200 -0.242716 4.980390 -93.226800 9.178880 -70.535000 5.348090 -0.000007 -0.000001 -60.601900 -8.170360 -15.177000 24.328600 0.000019 0.000005 0.647648 39.613200 -1.017050 22.291600 -0.000001 0.000005 -17.817300 5.242410 1.634040 12.994500 -0.242716 -4.980390 88.176200 6.374820 -73.998400 -5.348130 -0.000001 -0.000004 -69.624300 18.744600 -1.558160 -24.328900 0.000322 -0.000009 1.009160 3.945250 -14.375600 -22.291500 -0.000108 -0.000004 3.157300 5.286460 0.448641 -2.192480 -6.469440 -0.000000 -175.963000 -3.773050 -0.029121 39.081100 -0.000007 -0.000012 0.033630 -0.140116 13.496800 40.985400 -0.000006 -0.000013 0.150656 12.171300 -68.985500 11.754300 -0.000000 0.000003 -0.000372 0.173662 -9.532850 -2.192510 6.469440 -0.000001 174.255000 7.022220 -176.818000 -39.081100 -0.002282 -0.040193 0.001906 0.009400 8.678330 -40.985400 0.000008 0.000006 -10.599200 5.262240 -66.058800 -11.754300 -0.000006 -0.000006 -0.010716 0.276580 -5.335180
0.000000 0.000000 0.000000 0.000000 0.000000 -0.000000 1.201020 93.118000 1.505640 89.403200 1.536060 -0.582069 15.735700 0.000005 -0.000001 124.664000 88.078400 -123.065000 8.984550 -0.406207 -0.000000 -4.632490 2.011090 3.281720 16.377300 -0.000001 -0.000001 -0.085359 2.422060 -0.264571 6.456720 -0.000001 -0.000000 2.075960 1.773970 4.864670 12.994200 -0.242716 4.980390 -92.999800 8.492000 -70.461500 5.348090 -0.000007 -0.000001 -56.517800 -13.169100 -17.457000 24.328600 0.000019 0.000005 0.244649 41.679900 -0.367821 22.291600 -0.000001 0.000005 -18.845000 5.231370 1.920110 12.994500 -0.242716 -4.980390 88.257300 6.068890 -73.945000 -5.348130 -0.000001 -0.000004 -68.707100 17.411700 -1.754880 -24.328900 0.000322 -0.000009 1.123000 4.345020 -14.519200 -22.291500 -0.000108 -0.000004 3.388080 5.282630 0.554086 -2.192480 -6.469440 -0.000000 -175.936000 -4.083870 -0.126903 39.081100 -0.000007 -0.000012 0.032101 -0.140762 12.846800 40.985400 -0.000006 -0.000013 0.073683 12.611000 -68.855400 11.754300 -0.000000 0.000003 -0.000584 0.176941 -9.399630 -2.192510 6.469440 -0.000001 174.293000 6.973880 -176.846000 -39.081100 -0.002282 -0.040193 0.003030 0.002242 7.920730 -40.985400 0.000008 0.000006 -11.113800 5.019890 -65.622900 -11.754300 -0.000006 -0.000006 -0.010879 0.277761 -5.286870
